<svg xmlns="http://www.w3.org/2000/svg" width="800" height="480" viewBox="0 0 800 480">
  <defs>
    <linearGradient id="bg" x1="0" y1="0" x2="1" y2="0">
      <stop offset="0%" stop-color="#0099A8"/>
      <stop offset="100%" stop-color="#00B4C5"/>
    </linearGradient>
    <pattern id="grid" width="40" height="40" patternUnits="userSpaceOnUse">
      <path d="M 40 0 L 0 0 0 40" fill="none" stroke="white" stroke-width="0.5" opacity="0.06"/>
    </pattern>
    <pattern id="dots" width="30" height="30" patternUnits="userSpaceOnUse">
      <circle cx="15" cy="15" r="1" fill="white" opacity="0.07"/>
    </pattern>
  </defs>
  <rect width="800" height="480" rx="16" fill="url(#bg)"/>
  <rect width="800" height="480" rx="16" fill="url(#grid)"/>
  <rect width="800" height="480" rx="16" fill="url(#dots)"/>
  <circle cx="120" cy="100" r="60" fill="none" stroke="white" stroke-width="1" opacity="0.04"/>
  <circle cx="120" cy="100" r="40" fill="none" stroke="white" stroke-width="0.5" opacity="0.03"/>
  <circle cx="680" cy="380" r="80" fill="none" stroke="white" stroke-width="1" opacity="0.04"/>
  <circle cx="680" cy="380" r="50" fill="none" stroke="white" stroke-width="0.5" opacity="0.03"/>
  <polygon points="700,60 730,80 730,120 700,140 670,120 670,80" fill="none" stroke="white" stroke-width="0.8" opacity="0.05"/>
  <polygon points="100,350 125,367 125,400 100,417 75,400 75,367" fill="none" stroke="white" stroke-width="0.8" opacity="0.04"/>
  <rect x="60" y="50" width="30" height="30" rx="4" fill="none" stroke="white" stroke-width="0.6" opacity="0.03" transform="rotate(15 75 65)"/>
  <rect x="710" y="200" width="25" height="25" rx="3" fill="none" stroke="white" stroke-width="0.6" opacity="0.03" transform="rotate(-20 722 212)"/>
  <g transform="translate(400,240)" fill="none" stroke="white" stroke-width="3" stroke-linecap="round" stroke-linejoin="round">
    <!-- Main leaf shape -->
    <path d="M0,80 C0,80 -70,30 -70,-20 C-70,-60 -35,-80 0,-75 C35,-80 70,-60 70,-20 C70,30 0,80 0,80z" fill="white" fill-opacity="0.1" stroke-width="2.5"/>
    <!-- Central vein -->
    <path d="M0,-70 L0,80" stroke-width="2.5" opacity="0.6"/>
    <!-- Side veins -->
    <path d="M0,-50 C-20,-40 -40,-35 -52,-28" stroke-width="1.5" opacity="0.35"/>
    <path d="M0,-50 C20,-40 40,-35 52,-28" stroke-width="1.5" opacity="0.35"/>
    <path d="M0,-25 C-25,-15 -50,-8 -60,2" stroke-width="1.5" opacity="0.3"/>
    <path d="M0,-25 C25,-15 50,-8 60,2" stroke-width="1.5" opacity="0.3"/>
    <path d="M0,0 C-25,10 -48,20 -55,30" stroke-width="1.5" opacity="0.25"/>
    <path d="M0,0 C25,10 48,20 55,30" stroke-width="1.5" opacity="0.25"/>
    <path d="M0,25 C-20,35 -35,42 -40,50" stroke-width="1.5" opacity="0.2"/>
    <path d="M0,25 C20,35 35,42 40,50" stroke-width="1.5" opacity="0.2"/>
    <!-- Small blossom at top -->
    <circle cx="0" cy="-72" r="8" fill="white" fill-opacity="0.15" stroke-width="1.5"/>
    <circle cx="-10" cy="-78" r="6" fill="white" fill-opacity="0.1" stroke-width="1"/>
    <circle cx="10" cy="-78" r="6" fill="white" fill-opacity="0.1" stroke-width="1"/>
    <circle cx="0" cy="-84" r="5" fill="white" fill-opacity="0.1" stroke-width="1"/>
    <!-- Dew drops -->
    <circle cx="-30" cy="-10" r="3" fill="white" fill-opacity="0.2"/>
    <circle cx="25" cy="15" r="2.5" fill="white" fill-opacity="0.15"/>
  </g>
</svg>