<svg xmlns="http://www.w3.org/2000/svg" width="800" height="480" viewBox="0 0 800 480">
  <defs>
    <linearGradient id="bg" x1="0" y1="0" x2="1" y2="0">
      <stop offset="0%" stop-color="#0099A8"/>
      <stop offset="100%" stop-color="#00B4C5"/>
    </linearGradient>
    <pattern id="grid" width="40" height="40" patternUnits="userSpaceOnUse">
      <path d="M 40 0 L 0 0 0 40" fill="none" stroke="white" stroke-width="0.5" opacity="0.06"/>
    </pattern>
    <pattern id="dots" width="30" height="30" patternUnits="userSpaceOnUse">
      <circle cx="15" cy="15" r="1" fill="white" opacity="0.07"/>
    </pattern>
  </defs>
  <rect width="800" height="480" rx="16" fill="url(#bg)"/>
  <rect width="800" height="480" rx="16" fill="url(#grid)"/>
  <rect width="800" height="480" rx="16" fill="url(#dots)"/>
  <circle cx="120" cy="100" r="60" fill="none" stroke="white" stroke-width="1" opacity="0.04"/>
  <circle cx="120" cy="100" r="40" fill="none" stroke="white" stroke-width="0.5" opacity="0.03"/>
  <circle cx="680" cy="380" r="80" fill="none" stroke="white" stroke-width="1" opacity="0.04"/>
  <circle cx="680" cy="380" r="50" fill="none" stroke="white" stroke-width="0.5" opacity="0.03"/>
  <polygon points="700,60 730,80 730,120 700,140 670,120 670,80" fill="none" stroke="white" stroke-width="0.8" opacity="0.05"/>
  <polygon points="100,350 125,367 125,400 100,417 75,400 75,367" fill="none" stroke="white" stroke-width="0.8" opacity="0.04"/>
  <rect x="60" y="50" width="30" height="30" rx="4" fill="none" stroke="white" stroke-width="0.6" opacity="0.03" transform="rotate(15 75 65)"/>
  <rect x="710" y="200" width="25" height="25" rx="3" fill="none" stroke="white" stroke-width="0.6" opacity="0.03" transform="rotate(-20 722 212)"/>
  <g transform="translate(400,240)" fill="none" stroke="white" stroke-width="3" stroke-linecap="round" stroke-linejoin="round">
    <!-- Apple body -->
    <path d="M0,-25 C-15,-35 -55,-35 -60,-5 C-68,35 -40,70 -10,80 C-3,82 3,82 10,80 C40,70 68,35 60,-5 C55,-35 15,-35 0,-25z" fill="white" fill-opacity="0.1" stroke-width="2.5"/>
    <!-- Indent at top -->
    <path d="M-12,-25 C-5,-20 5,-20 12,-25" stroke-width="2" opacity="0.5"/>
    <!-- Stem -->
    <path d="M0,-25 C2,-40 5,-55 12,-62" stroke-width="2.5"/>
    <!-- Small leaf on stem -->
    <path d="M8,-52 C15,-58 25,-55 28,-48 C22,-45 12,-48 8,-52z" fill="white" fill-opacity="0.15" stroke-width="1.5"/>
    <!-- Heart inside -->
    <path d="M0,15 C-3,10 -12,7 -16,12 C-22,19 -18,28 0,40 C18,28 22,19 16,12 C12,7 3,10 0,15z" fill="white" fill-opacity="0.15" stroke-width="2"/>
    <!-- Shine highlight -->
    <path d="M-35,-10 C-38,5 -35,15 -30,22" stroke-width="1.5" opacity="0.2"/>
  </g>
</svg>