<svg xmlns="http://www.w3.org/2000/svg" width="800" height="480" viewBox="0 0 800 480">
  <defs>
    <linearGradient id="bg" x1="0" y1="0" x2="1" y2="0">
      <stop offset="0%" stop-color="#0099A8"/>
      <stop offset="100%" stop-color="#00B4C5"/>
    </linearGradient>
    <pattern id="grid" width="40" height="40" patternUnits="userSpaceOnUse">
      <path d="M 40 0 L 0 0 0 40" fill="none" stroke="white" stroke-width="0.5" opacity="0.06"/>
    </pattern>
    <pattern id="dots" width="30" height="30" patternUnits="userSpaceOnUse">
      <circle cx="15" cy="15" r="1" fill="white" opacity="0.07"/>
    </pattern>
  </defs>
  <rect width="800" height="480" rx="16" fill="url(#bg)"/>
  <rect width="800" height="480" rx="16" fill="url(#grid)"/>
  <rect width="800" height="480" rx="16" fill="url(#dots)"/>
  <circle cx="120" cy="100" r="60" fill="none" stroke="white" stroke-width="1" opacity="0.04"/>
  <circle cx="120" cy="100" r="40" fill="none" stroke="white" stroke-width="0.5" opacity="0.03"/>
  <circle cx="680" cy="380" r="80" fill="none" stroke="white" stroke-width="1" opacity="0.04"/>
  <circle cx="680" cy="380" r="50" fill="none" stroke="white" stroke-width="0.5" opacity="0.03"/>
  <polygon points="700,60 730,80 730,120 700,140 670,120 670,80" fill="none" stroke="white" stroke-width="0.8" opacity="0.05"/>
  <polygon points="100,350 125,367 125,400 100,417 75,400 75,367" fill="none" stroke="white" stroke-width="0.8" opacity="0.04"/>
  <rect x="60" y="50" width="30" height="30" rx="4" fill="none" stroke="white" stroke-width="0.6" opacity="0.03" transform="rotate(15 75 65)"/>
  <rect x="710" y="200" width="25" height="25" rx="3" fill="none" stroke="white" stroke-width="0.6" opacity="0.03" transform="rotate(-20 722 212)"/>
  <g transform="translate(400,240)" fill="none" stroke="white" stroke-width="3" stroke-linecap="round" stroke-linejoin="round">
    <!-- Shield body -->
    <path d="M0,-80 L-65,-55 L-65,5 C-65,45 -15,75 0,85 C15,75 65,45 65,5 L65,-55 Z" fill="white" fill-opacity="0.08" stroke-width="3"/>
    <!-- Inner shield line -->
    <path d="M0,-65 L-52,-44 L-52,3 C-52,36 -12,60 0,68 C12,60 52,36 52,3 L52,-44 Z" fill="white" fill-opacity="0.05" stroke-width="1.5" opacity="0.5"/>
    <!-- Large checkmark -->
    <path d="M-28,0 L-10,20 L30,-25" stroke-width="5" opacity="0.8"/>
    <!-- Decorative rays -->
    <line x1="-45" y1="-30" x2="-38" y2="-25" stroke-width="1" opacity="0.15"/>
    <line x1="45" y1="-30" x2="38" y2="-25" stroke-width="1" opacity="0.15"/>
    <line x1="0" y1="-65" x2="0" y2="-55" stroke-width="1" opacity="0.15"/>
  </g>
</svg>