<svg xmlns="http://www.w3.org/2000/svg" width="800" height="480" viewBox="0 0 800 480">
  <defs>
    <linearGradient id="bg" x1="0" y1="0" x2="1" y2="0">
      <stop offset="0%" stop-color="#0099A8"/>
      <stop offset="100%" stop-color="#00B4C5"/>
    </linearGradient>
    <pattern id="grid" width="40" height="40" patternUnits="userSpaceOnUse">
      <path d="M 40 0 L 0 0 0 40" fill="none" stroke="white" stroke-width="0.5" opacity="0.06"/>
    </pattern>
    <pattern id="dots" width="30" height="30" patternUnits="userSpaceOnUse">
      <circle cx="15" cy="15" r="1" fill="white" opacity="0.07"/>
    </pattern>
  </defs>
  <rect width="800" height="480" rx="16" fill="url(#bg)"/>
  <rect width="800" height="480" rx="16" fill="url(#grid)"/>
  <rect width="800" height="480" rx="16" fill="url(#dots)"/>
  <circle cx="120" cy="100" r="60" fill="none" stroke="white" stroke-width="1" opacity="0.04"/>
  <circle cx="120" cy="100" r="40" fill="none" stroke="white" stroke-width="0.5" opacity="0.03"/>
  <circle cx="680" cy="380" r="80" fill="none" stroke="white" stroke-width="1" opacity="0.04"/>
  <circle cx="680" cy="380" r="50" fill="none" stroke="white" stroke-width="0.5" opacity="0.03"/>
  <polygon points="700,60 730,80 730,120 700,140 670,120 670,80" fill="none" stroke="white" stroke-width="0.8" opacity="0.05"/>
  <polygon points="100,350 125,367 125,400 100,417 75,400 75,367" fill="none" stroke="white" stroke-width="0.8" opacity="0.04"/>
  <rect x="60" y="50" width="30" height="30" rx="4" fill="none" stroke="white" stroke-width="0.6" opacity="0.03" transform="rotate(15 75 65)"/>
  <rect x="710" y="200" width="25" height="25" rx="3" fill="none" stroke="white" stroke-width="0.6" opacity="0.03" transform="rotate(-20 722 212)"/>
  <g transform="translate(400,240)" fill="none" stroke="white" stroke-width="3" stroke-linecap="round" stroke-linejoin="round">
    <!-- Main body -->
    <rect x="-75" y="-30" width="150" height="95" rx="8" fill="white" fill-opacity="0.1" stroke-width="2.5"/>
    <!-- Handle -->
    <path d="M-20,-30 L-20,-48 C-20,-55 -15,-60 -8,-60 L8,-60 C15,-60 20,-55 20,-48 L20,-30" stroke-width="3"/>
    <!-- Middle divider -->
    <line x1="-75" y1="15" x2="75" y2="15" stroke-width="1.5" opacity="0.3"/>
    <!-- Buckle/clasp -->
    <rect x="-12" y="8" width="24" height="14" rx="3" fill="white" fill-opacity="0.15" stroke-width="2"/>
    <circle cx="0" cy="15" r="3" fill="white" fill-opacity="0.3"/>
    <!-- Side compartments -->
    <line x1="-40" y1="-30" x2="-40" y2="65" stroke-width="1" opacity="0.15"/>
    <line x1="40" y1="-30" x2="40" y2="65" stroke-width="1" opacity="0.15"/>
    <!-- Bottom detail -->
    <line x1="-65" y1="55" x2="65" y2="55" stroke-width="1" opacity="0.1"/>
    <!-- Stitching -->
    <rect x="-70" y="-25" width="140" height="85" rx="5" stroke-dasharray="4 6" stroke-width="0.8" opacity="0.15"/>
  </g>
</svg>