<svg xmlns="http://www.w3.org/2000/svg" width="800" height="480" viewBox="0 0 800 480">
  <defs>
    <linearGradient id="bg" x1="0" y1="0" x2="1" y2="0">
      <stop offset="0%" stop-color="#0099A8"/>
      <stop offset="100%" stop-color="#00B4C5"/>
    </linearGradient>
    <pattern id="grid" width="40" height="40" patternUnits="userSpaceOnUse">
      <path d="M 40 0 L 0 0 0 40" fill="none" stroke="white" stroke-width="0.5" opacity="0.06"/>
    </pattern>
    <pattern id="dots" width="30" height="30" patternUnits="userSpaceOnUse">
      <circle cx="15" cy="15" r="1" fill="white" opacity="0.07"/>
    </pattern>
  </defs>
  <rect width="800" height="480" rx="16" fill="url(#bg)"/>
  <rect width="800" height="480" rx="16" fill="url(#grid)"/>
  <rect width="800" height="480" rx="16" fill="url(#dots)"/>
  <circle cx="120" cy="100" r="60" fill="none" stroke="white" stroke-width="1" opacity="0.04"/>
  <circle cx="120" cy="100" r="40" fill="none" stroke="white" stroke-width="0.5" opacity="0.03"/>
  <circle cx="680" cy="380" r="80" fill="none" stroke="white" stroke-width="1" opacity="0.04"/>
  <circle cx="680" cy="380" r="50" fill="none" stroke="white" stroke-width="0.5" opacity="0.03"/>
  <polygon points="700,60 730,80 730,120 700,140 670,120 670,80" fill="none" stroke="white" stroke-width="0.8" opacity="0.05"/>
  <polygon points="100,350 125,367 125,400 100,417 75,400 75,367" fill="none" stroke="white" stroke-width="0.8" opacity="0.04"/>
  <rect x="60" y="50" width="30" height="30" rx="4" fill="none" stroke="white" stroke-width="0.6" opacity="0.03" transform="rotate(15 75 65)"/>
  <rect x="710" y="200" width="25" height="25" rx="3" fill="none" stroke="white" stroke-width="0.6" opacity="0.03" transform="rotate(-20 722 212)"/>
  <g transform="translate(400,240)" fill="none" stroke="white" stroke-width="3" stroke-linecap="round" stroke-linejoin="round">
    <!-- Back bubble -->
    <path d="M15,-60 L65,-60 C73,-60 80,-53 80,-45 L80,-5 C80,3 73,10 65,10 L55,10 L60,30 L35,10 L15,10 C7,10 0,3 0,-5 L0,-45 C0,-53 7,-60 15,-60z" fill="white" fill-opacity="0.1" stroke-width="2.5"/>
    <!-- Front bubble -->
    <path d="M-65,-35 L25,-35 C33,-35 40,-28 40,-20 L40,20 C40,28 33,35 25,35 L-15,35 L-30,60 L-25,35 L-65,35 C-73,35 -80,28 -80,20 L-80,-20 C-80,-28 -73,-35 -65,-35z" fill="white" fill-opacity="0.12" stroke-width="2.5"/>
    <!-- Text lines in front bubble -->
    <line x1="-55" y1="-15" x2="15" y2="-15" stroke-width="2" opacity="0.35"/>
    <line x1="-55" y1="-2" x2="5" y2="-2" stroke-width="2" opacity="0.3"/>
    <line x1="-55" y1="11" x2="-10" y2="11" stroke-width="2" opacity="0.25"/>
    <!-- Dots in back bubble -->
    <circle cx="35" cy="-30" r="3" fill="white" opacity="0.25"/>
    <circle cx="47" cy="-30" r="3" fill="white" opacity="0.25"/>
    <circle cx="59" cy="-30" r="3" fill="white" opacity="0.25"/>
  </g>
</svg>