<svg xmlns="http://www.w3.org/2000/svg" width="800" height="480" viewBox="0 0 800 480">
  <defs>
    <linearGradient id="bg" x1="0" y1="0" x2="1" y2="0">
      <stop offset="0%" stop-color="#0099A8"/>
      <stop offset="100%" stop-color="#00B4C5"/>
    </linearGradient>
    <pattern id="grid" width="40" height="40" patternUnits="userSpaceOnUse">
      <path d="M 40 0 L 0 0 0 40" fill="none" stroke="white" stroke-width="0.5" opacity="0.06"/>
    </pattern>
    <pattern id="dots" width="30" height="30" patternUnits="userSpaceOnUse">
      <circle cx="15" cy="15" r="1" fill="white" opacity="0.07"/>
    </pattern>
  </defs>
  <rect width="800" height="480" rx="16" fill="url(#bg)"/>
  <rect width="800" height="480" rx="16" fill="url(#grid)"/>
  <rect width="800" height="480" rx="16" fill="url(#dots)"/>
  <circle cx="120" cy="100" r="60" fill="none" stroke="white" stroke-width="1" opacity="0.04"/>
  <circle cx="120" cy="100" r="40" fill="none" stroke="white" stroke-width="0.5" opacity="0.03"/>
  <circle cx="680" cy="380" r="80" fill="none" stroke="white" stroke-width="1" opacity="0.04"/>
  <circle cx="680" cy="380" r="50" fill="none" stroke="white" stroke-width="0.5" opacity="0.03"/>
  <polygon points="700,60 730,80 730,120 700,140 670,120 670,80" fill="none" stroke="white" stroke-width="0.8" opacity="0.05"/>
  <polygon points="100,350 125,367 125,400 100,417 75,400 75,367" fill="none" stroke="white" stroke-width="0.8" opacity="0.04"/>
  <rect x="60" y="50" width="30" height="30" rx="4" fill="none" stroke="white" stroke-width="0.6" opacity="0.03" transform="rotate(15 75 65)"/>
  <rect x="710" y="200" width="25" height="25" rx="3" fill="none" stroke="white" stroke-width="0.6" opacity="0.03" transform="rotate(-20 722 212)"/>
  <g transform="translate(400,240)" fill="none" stroke="white" stroke-width="3" stroke-linecap="round" stroke-linejoin="round">
    <!-- Left person -->
    <circle cx="-30" cy="-40" r="22" fill="white" fill-opacity="0.1" stroke-width="2.5"/>
    <path d="M-65,60 C-65,25 -50,5 -30,5 C-15,5 -5,15 -2,30" fill="white" fill-opacity="0.08" stroke-width="2.5"/>
    <!-- Right person -->
    <circle cx="30" cy="-40" r="22" fill="white" fill-opacity="0.1" stroke-width="2.5"/>
    <path d="M65,60 C65,25 50,5 30,5 C15,5 5,15 2,30" fill="white" fill-opacity="0.08" stroke-width="2.5"/>
    <!-- Connection between them (heart or bond) -->
    <path d="M0,30 C0,30 -5,22 -10,25 C-16,30 -12,38 0,48 C12,38 16,30 10,25 C5,22 0,30 0,30z" fill="white" fill-opacity="0.15" stroke-width="1.5"/>
    <!-- Overlap area -->
    <path d="M-2,30 L2,30" stroke-width="0" opacity="0"/>
    <!-- Subtle facial features -->
    <circle cx="-35" cy="-43" r="2" fill="white" opacity="0.15"/>
    <circle cx="-25" cy="-43" r="2" fill="white" opacity="0.15"/>
    <path d="M-34,-35 C-32,-32 -28,-32 -26,-35" stroke-width="1.5" opacity="0.15"/>
    <circle cx="25" cy="-43" r="2" fill="white" opacity="0.15"/>
    <circle cx="35" cy="-43" r="2" fill="white" opacity="0.15"/>
    <path d="M26,-35 C28,-32 32,-32 34,-35" stroke-width="1.5" opacity="0.15"/>
  </g>
</svg>