<svg xmlns="http://www.w3.org/2000/svg" width="800" height="480" viewBox="0 0 800 480">
  <defs>
    <linearGradient id="bg" x1="0" y1="0" x2="1" y2="0">
      <stop offset="0%" stop-color="#0099A8"/>
      <stop offset="100%" stop-color="#00B4C5"/>
    </linearGradient>
    <pattern id="grid" width="40" height="40" patternUnits="userSpaceOnUse">
      <path d="M 40 0 L 0 0 0 40" fill="none" stroke="white" stroke-width="0.5" opacity="0.06"/>
    </pattern>
    <pattern id="dots" width="30" height="30" patternUnits="userSpaceOnUse">
      <circle cx="15" cy="15" r="1" fill="white" opacity="0.07"/>
    </pattern>
  </defs>
  <rect width="800" height="480" rx="16" fill="url(#bg)"/>
  <rect width="800" height="480" rx="16" fill="url(#grid)"/>
  <rect width="800" height="480" rx="16" fill="url(#dots)"/>
  <circle cx="120" cy="100" r="60" fill="none" stroke="white" stroke-width="1" opacity="0.04"/>
  <circle cx="120" cy="100" r="40" fill="none" stroke="white" stroke-width="0.5" opacity="0.03"/>
  <circle cx="680" cy="380" r="80" fill="none" stroke="white" stroke-width="1" opacity="0.04"/>
  <circle cx="680" cy="380" r="50" fill="none" stroke="white" stroke-width="0.5" opacity="0.03"/>
  <polygon points="700,60 730,80 730,120 700,140 670,120 670,80" fill="none" stroke="white" stroke-width="0.8" opacity="0.05"/>
  <polygon points="100,350 125,367 125,400 100,417 75,400 75,367" fill="none" stroke="white" stroke-width="0.8" opacity="0.04"/>
  <rect x="60" y="50" width="30" height="30" rx="4" fill="none" stroke="white" stroke-width="0.6" opacity="0.03" transform="rotate(15 75 65)"/>
  <rect x="710" y="200" width="25" height="25" rx="3" fill="none" stroke="white" stroke-width="0.6" opacity="0.03" transform="rotate(-20 722 212)"/>
  <g transform="translate(400,240)" fill="none" stroke="white" stroke-width="3" stroke-linecap="round" stroke-linejoin="round">
    <!-- Left page -->
    <path d="M-5,-65 L-5,55 C-5,55 -25,48 -70,48 L-70,-55 C-70,-55 -30,-62 -5,-65z" fill="white" fill-opacity="0.1" stroke-width="2.5"/>
    <!-- Right page -->
    <path d="M5,-65 L5,55 C5,55 25,48 70,48 L70,-55 C70,-55 30,-62 5,-65z" fill="white" fill-opacity="0.1" stroke-width="2.5"/>
    <!-- Spine -->
    <path d="M0,-68 L0,58" stroke-width="2" opacity="0.6"/>
    <!-- Left page text lines -->
    <line x1="-55" y1="-35" x2="-18" y2="-35" stroke-width="1.5" opacity="0.4"/>
    <line x1="-55" y1="-22" x2="-22" y2="-22" stroke-width="1.5" opacity="0.35"/>
    <line x1="-55" y1="-9" x2="-15" y2="-9" stroke-width="1.5" opacity="0.3"/>
    <line x1="-55" y1="4" x2="-25" y2="4" stroke-width="1.5" opacity="0.25"/>
    <line x1="-55" y1="17" x2="-20" y2="17" stroke-width="1.5" opacity="0.2"/>
    <!-- Right page text lines -->
    <line x1="18" y1="-35" x2="55" y2="-35" stroke-width="1.5" opacity="0.4"/>
    <line x1="22" y1="-22" x2="55" y2="-22" stroke-width="1.5" opacity="0.35"/>
    <line x1="15" y1="-9" x2="55" y2="-9" stroke-width="1.5" opacity="0.3"/>
    <line x1="25" y1="4" x2="55" y2="4" stroke-width="1.5" opacity="0.25"/>
    <line x1="20" y1="17" x2="55" y2="17" stroke-width="1.5" opacity="0.2"/>
    <!-- Bookmark -->
    <path d="M45,-55 L45,-30 L50,-25 L55,-30 L55,-55" fill="white" fill-opacity="0.2" stroke-width="1.5"/>
    <!-- Page curl -->
    <path d="M70,48 C68,42 62,38 55,40" stroke-width="1" opacity="0.3"/>
  </g>
</svg>