<svg xmlns="http://www.w3.org/2000/svg" width="800" height="480" viewBox="0 0 800 480">
  <defs>
    <linearGradient id="bg" x1="0" y1="0" x2="1" y2="0">
      <stop offset="0%" stop-color="#0099A8"/>
      <stop offset="100%" stop-color="#00B4C5"/>
    </linearGradient>
    <pattern id="grid" width="40" height="40" patternUnits="userSpaceOnUse">
      <path d="M 40 0 L 0 0 0 40" fill="none" stroke="white" stroke-width="0.5" opacity="0.06"/>
    </pattern>
    <pattern id="dots" width="30" height="30" patternUnits="userSpaceOnUse">
      <circle cx="15" cy="15" r="1" fill="white" opacity="0.07"/>
    </pattern>
  </defs>
  <rect width="800" height="480" rx="16" fill="url(#bg)"/>
  <rect width="800" height="480" rx="16" fill="url(#grid)"/>
  <rect width="800" height="480" rx="16" fill="url(#dots)"/>
  <circle cx="120" cy="100" r="60" fill="none" stroke="white" stroke-width="1" opacity="0.04"/>
  <circle cx="120" cy="100" r="40" fill="none" stroke="white" stroke-width="0.5" opacity="0.03"/>
  <circle cx="680" cy="380" r="80" fill="none" stroke="white" stroke-width="1" opacity="0.04"/>
  <circle cx="680" cy="380" r="50" fill="none" stroke="white" stroke-width="0.5" opacity="0.03"/>
  <polygon points="700,60 730,80 730,120 700,140 670,120 670,80" fill="none" stroke="white" stroke-width="0.8" opacity="0.05"/>
  <polygon points="100,350 125,367 125,400 100,417 75,400 75,367" fill="none" stroke="white" stroke-width="0.8" opacity="0.04"/>
  <rect x="60" y="50" width="30" height="30" rx="4" fill="none" stroke="white" stroke-width="0.6" opacity="0.03" transform="rotate(15 75 65)"/>
  <rect x="710" y="200" width="25" height="25" rx="3" fill="none" stroke="white" stroke-width="0.6" opacity="0.03" transform="rotate(-20 722 212)"/>
  <g transform="translate(400,240)" fill="none" stroke="white" stroke-width="3" stroke-linecap="round" stroke-linejoin="round">
    <!-- Top-left piece -->
    <path d="M-70,-70 L-10,-70 C-10,-70 -10,-85 0,-85 C10,-85 10,-70 10,-70 L10,-10 C10,-10 25,-10 25,0 C25,10 10,10 10,10 L-70,10 L-70,-70z" fill="white" fill-opacity="0.12" stroke-width="2.5"/>
    <!-- Top-right piece -->
    <path d="M10,-70 L70,-70 L70,10 C70,10 55,10 55,0 C55,-10 70,-10 70,-10 L70,-70" fill="white" fill-opacity="0.08" stroke-width="2.5"/>
    <!-- Bottom-left piece -->
    <path d="M-70,10 L10,10 L10,70 L-70,70 L-70,10" fill="white" fill-opacity="0.06" stroke-width="2.5"/>
    <!-- Bottom-right piece (slightly detached) -->
    <g transform="translate(8,8) rotate(3)">
      <path d="M10,10 C10,10 10,25 0,25 C-10,25 -10,10 -10,10 L-10,10 C-10,10 -25,10 -25,0 C-25,-10 -10,-10 -10,-10 L60,-10 L60,60 L-10,60 L-10,10z" fill="white" fill-opacity="0.1" stroke-width="2.5"/>
    </g>
    <!-- Nub detail: top piece right nub -->
    <path d="M10,-70 C10,-70 10,-85 0,-85 C-10,-85 -10,-70 -10,-70" stroke-width="0" fill="none"/>
  </g>
</svg>